# xmcd
#
# Track frame offsets: 
#        150
#        7979
#        14178
#        27048
#        37679
#        49954
#        60975
#        68428
#        76969
#        87230
#        99665
#        105176
#        121170
#        135918
#        151629
#        172925
#        180114
#        187596
#        201389
#        209457
#        217461
#        227625
#        237468
#        250920
#        258465
#        272990
#        282771
#        296118
#        305049
#        319218
#
# Disc length: 4488 seconds
#
# Revision: 0
# Processed by: cddbd v1.5.2PL0 Copyright (c) Steve Scherf et al.
# Submitted via: ExactAudioCopyFreeDBPlugin 1.0
#
DISCID=9611861e
DTITLE=Various Artist - Attack Of The One Man Bands  CD 2
DYEAR=2007
DGENRE=Country Rock
TTITLE0=BBQ (2) - Hang On 
TTITLE1=Jeffrey Novak - Nothing To Do
TTITLE2=El Paso Hot Button - Snake Boy Lives In The Mississipi 
TTITLE3=Skip Jensen and His Shakin' Feet - Abscond
TTITLE4=Guitar Fucker  - Fuck Me I'm Poor
TTITLE5=Reverend Beat-Man - Bloody Fucking Cunt
TTITLE6=John Schooley  - Rock N' Roll Party With The One Man Band
TTITLE7=The Fabulous Go-Go Boy From Alabama - You Got To Love
TTITLE8=King Automatic - I Don't Give A Fuck
TTITLE9=Ottoboy The One Man Trash Band - Lo Ride 
TTITLE10=Reverend J. Brennan's - The Lord Told Me You Got Fat
TTITLE11=The Feeling Of Love - Revenge
TTITLE12=Urban Junior - Music For The Asses
TTITLE13=The Limbs - Bad Anna 
TTITLE14=The Uncle Butcher - No Judge, No Trial 
TTITLE15=Junior Disorder - Angry Heart
TTITLE16=Sheriff Perkins - Black Bowtie
TTITLE17=Scott H. Biram  - Plow You Under
TTITLE18=Margaret Doll Rod - Who's Gonna Rub Me?
TTITLE19=Almighty Do Me A Favor - You're Wrong 
TTITLE20=Lone Bird  - Business
TTITLE21=Pete Yorko and The One Man Music Band - Like Me
TTITLE22=Johnny Lowebow - Little Darling
TTITLE23=Reverend Deadeye - Hellfire Down
TTITLE24=Rocket Craig  - Alien Novelty Song 
TTITLE25=Mosquito Bandito - Laser Beams
TTITLE26=O Lendario Chucrobillyman - Guitarra Missil
TTITLE27=The Amazing Elephant Man - Can't Go Outside
TTITLE28=One Man Hand  - So Alone
TTITLE29=Johnny Cancer   - Do Your Own Thing
EXTD=
EXTT0=
EXTT1=
EXTT2=
EXTT3=
EXTT4=
EXTT5=
EXTT6=
EXTT7=
EXTT8=
EXTT9=
EXTT10=
EXTT11=
EXTT12=
EXTT13=
EXTT14=
EXTT15=
EXTT16=
EXTT17=
EXTT18=
EXTT19=
EXTT20=
EXTT21=
EXTT22=
EXTT23=
EXTT24=
EXTT25=
EXTT26=
EXTT27=
EXTT28=
EXTT29=
PLAYORDER=
